<?xml version="1.0" standalone="no"?>
<!DOCTYPE svg PUBLIC "-//W3C//DTD SVG 20010904//EN"
 "http://www.w3.org/TR/2001/REC-SVG-20010904/DTD/svg10.dtd">
<svg version="1.0" xmlns="http://www.w3.org/2000/svg"
 width="450.000000pt" height="392.000000pt" viewBox="0 0 450.000000 392.000000"
 preserveAspectRatio="xMidYMid meet">
<metadata>
Created by potrace 1.10, written by Peter Selinger 2001-2011
</metadata>
<g transform="translate(0.000000,392.000000) scale(0.050000,-0.050000)"
fill="#ff0000" stroke="none">
<path d="M4620 4399 c-718 -53 -1185 -424 -1263 -1004 -37 -272 22 -256 133
35 330 859 1244 1014 2344 398 163 -91 163 -89 36 -197 -118 -101 -262 -266
-246 -282 6 -5 119 63 253 152 188 125 252 159 286 148 35 -11 41 -7 30 19
-41 109 720 446 1114 494 871 106 1483 -722 1100 -1489 -185 -371 -426 -623
-1187 -1234 -573 -461 -873 -788 -993 -1082 -67 -166 -50 -186 38 -43 130 212
823 815 1144 998 363 206 1074 817 1248 1072 272 400 283 1116 22 1452 -273
352 -631 527 -1172 573 -327 28 -947 -208 -1290 -492 -116 -96 -113 -96 -255
19 -413 332 -889 496 -1342 463z"/>
<path d="M8383 4295 c223 -143 407 -338 512 -544 28 -55 55 -90 60 -76 37 108
-303 511 -533 633 -184 96 -202 91 -39 -13z"/>
<path d="M4385 3016 c-66 -71 -57 -80 66 -65 189 24 301 -137 131 -188 -303
-91 -415 -644 -115 -561 290 80 440 590 232 789 -84 81 -250 94 -314 25z m295
-371 c-1 -137 -145 -345 -240 -345 -105 0 -9 258 128 342 77 47 112 48 112 3z"/>
<path d="M359 2924 c-270 -172 -343 -567 -133 -714 164 -115 564 114 666 382
110 288 -250 512 -533 332z m363 -80 c139 -124 56 -361 -174 -496 -252 -148
-408 -32 -317 235 86 252 346 391 491 261z"/>
<path d="M3686 2775 c-11 -14 -31 -146 -44 -295 -13 -148 -37 -324 -53 -390
-37 -157 -36 -208 4 -224 48 -18 81 39 96 170 23 192 29 206 75 182 95 -51
318 107 388 274 114 273 -108 388 -308 159 -79 -90 -87 -89 -72 9 17 106 -37
179 -86 115z m370 -172 c13 -127 -158 -324 -255 -293 -80 25 -27 163 112 291
101 93 134 93 143 2z"/>
<path d="M1103 2745 c-23 -45 -50 -464 -32 -510 28 -72 79 -36 154 110 151
294 215 323 215 98 0 -262 112 -252 250 23 82 165 116 162 133 -9 17 -171 42
-217 117 -217 74 0 93 32 48 82 -21 23 -45 105 -61 202 -49 311 -135 299 -336
-47 l-38 -67 -17 138 c-31 256 -136 259 -288 9 -87 -144 -92 -142 -63 27 27
161 -26 268 -82 161z"/>
<path d="M2690 2717 c-241 -211 -222 -582 26 -525 75 18 217 101 230 136 20
50 -6 50 -118 -1 -215 -99 -277 25 -128 259 69 109 108 118 138 32 27 -78 70
-66 78 20 14 142 -107 184 -226 79z"/>
<path d="M3210 2717 c-218 -191 -208 -517 16 -517 97 0 228 71 266 144 42 80
-1 90 -83 18 -102 -90 -247 -88 -249 2 0 8 45 34 100 58 123 53 220 158 220
237 0 133 -149 165 -270 58z m166 -69 c6 -44 -82 -136 -151 -157 -53 -16 -57
7 -15 89 56 108 154 148 166 68z"/>
<path d="M5727 2760 c-104 -42 -246 -235 -276 -376 -40 -184 155 -219 308 -55
l50 53 20 -86 c22 -91 69 -119 122 -75 26 22 26 29 -2 60 -35 38 -41 137 -20
295 21 147 -76 235 -202 184z m92 -109 c52 -63 -125 -331 -220 -331 -82 0 -10
213 104 310 69 58 83 61 116 21z"/>
<path d="M4925 2735 c-49 -62 -89 -367 -57 -443 47 -112 148 -104 268 21 l90
93 -15 -94 c-13 -87 -10 -96 29 -106 39 -10 42 -21 31 -99 -18 -116 32 -119
90 -5 51 100 45 166 -16 174 -49 7 -49 12 -4 279 26 157 -34 239 -83 110 -148
-397 -388 -463 -265 -73 41 128 -5 223 -68 143z"/>
<path d="M4684 1919 c-69 -64 -54 -81 61 -67 185 22 287 -126 125 -183 -265
-92 -405 -549 -168 -549 316 0 513 636 248 800 -86 53 -209 53 -266 -1z m276
-380 c0 -117 -147 -319 -232 -319 -95 0 1 247 130 335 89 59 102 57 102 -16z"/>
<path d="M1944 1675 c-19 -24 -69 -358 -73 -485 -2 -103 74 -82 92 25 28 159
61 164 176 26 88 -105 136 -132 201 -111 54 17 51 63 -5 77 -25 6 -80 53 -123
105 l-79 94 90 82 c49 45 106 93 128 106 38 24 38 25 1 54 -52 42 -123 3 -208
-115 -56 -78 -132 -132 -154 -110 -3 4 3 54 14 111 28 140 -2 211 -60 141z"/>
<path d="M3079 1670 c-93 -50 -219 -270 -219 -381 0 -188 209 -234 375 -83 75
68 58 101 -30 56 -127 -64 -219 -62 -236 6 -15 59 57 231 121 292 l47 44 33
-63 c39 -77 78 -70 86 14 11 112 -77 170 -177 115z"/>
<path d="M3610 1681 c-108 -46 -230 -237 -230 -361 0 -203 214 -267 375 -114
103 98 88 155 -19 76 -98 -72 -203 -83 -234 -25 -17 32 -6 43 78 81 184 83
268 234 180 322 -42 42 -84 48 -150 21z m90 -130 c0 -49 -70 -119 -143 -142
-54 -17 -65 -1 -36 54 66 129 179 184 179 88z"/>
<path d="M3989 1679 c-7 -13 -21 -124 -31 -249 -9 -124 -30 -292 -47 -373 -39
-186 -39 -235 0 -250 51 -20 69 17 95 185 l24 157 80 -6 c207 -15 447 327 342
487 -55 84 -153 69 -272 -42 l-98 -91 -6 96 c-6 97 -52 142 -87 86z m378 -127
c35 -93 -142 -341 -233 -328 -65 9 -66 85 -3 183 97 149 208 217 236 145z"/>
<path d="M6135 1658 c-25 -14 -35 -45 -35 -110 0 -120 -39 -189 -140 -246
-127 -71 -161 -30 -112 132 63 209 63 206 6 206 -72 0 -132 -198 -117 -385 9
-103 174 -104 287 -1 49 44 60 27 44 -72 -30 -190 -160 -273 -286 -183 -72 51
-102 52 -102 3 0 -53 125 -127 218 -129 156 -4 241 113 280 387 46 314 32 440
-43 398z"/>
<path d="M5191 1635 c-132 -409 -15 -639 209 -415 l80 80 0 -82 c0 -65 8 -84
41 -92 25 -7 37 -23 31 -43 -45 -153 -33 -179 46 -95 68 72 82 212 22 212 -48
0 -50 69 -8 337 19 120 -63 117 -105 -4 -34 -101 -158 -267 -210 -284 -82 -26
-91 69 -26 265 15 47 23 99 16 115 -14 37 -85 41 -96 6z"/>
</g>
</svg>
