<svg id="svg" version="1.1" xmlns="http://www.w3.org/2000/svg" xmlns:xlink="http://www.w3.org/1999/xlink" width="400" height="348.0769230769231" viewBox="0, 0, 400,348.0769230769231"><g id="svgg"><path id="path0" d="M0.000 174.064 L 0.000 348.129 200.000 348.129 L 400.000 348.129 400.000 174.064 L 400.000 0.000 200.000 0.000 L 0.000 0.000 0.000 174.064 M224.717 153.321 C 238.000 156.273,256.126 165.316,266.289 174.062 C 270.871 178.007,271.204 177.954,278.503 172.117 C 280.838 170.250,292.585 163.451,296.820 161.516 C 298.138 160.913,301.018 159.591,303.220 158.576 C 307.232 156.728,313.544 154.596,319.408 153.107 C 326.014 151.431,340.352 152.194,350.442 154.759 C 383.773 163.233,400.187 189.506,392.952 222.802 C 390.284 235.079,386.227 242.455,376.504 252.702 C 369.076 260.530,349.811 276.378,338.381 284.063 C 337.137 284.900,335.257 286.248,334.204 287.059 C 333.151 287.870,331.036 289.226,329.504 290.072 C 327.972 290.919,325.492 292.497,323.993 293.580 C 322.494 294.662,319.495 296.649,317.327 297.993 C 314.314 299.863,312.580 301.264,309.957 303.946 C 308.071 305.876,303.551 309.905,299.913 312.901 C 293.421 318.246,285.231 326.086,279.659 332.289 C 276.554 335.745,276.075 335.841,276.688 332.887 C 279.051 321.503,293.336 305.960,324.108 281.288 C 353.596 257.647,365.851 244.836,373.353 229.813 C 380.109 216.284,380.572 200.124,374.507 189.463 C 357.924 160.310,328.942 155.158,290.862 174.593 C 282.879 178.667,277.944 181.760,275.892 183.975 C 274.470 185.510,273.789 185.954,272.170 186.403 C 270.735 186.801,268.195 188.279,262.945 191.771 C 255.230 196.904,253.192 198.085,252.059 198.085 C 250.118 198.085,252.443 194.784,258.699 188.659 C 266.079 181.434,266.223 181.840,254.164 175.851 C 216.089 156.942,188.425 156.693,168.778 175.084 C 162.491 180.970,159.228 185.803,156.468 193.322 C 152.821 203.258,150.944 206.169,149.146 204.678 C 148.083 203.795,149.168 193.531,150.947 187.647 C 156.710 168.584,177.484 154.998,204.700 152.492 C 211.045 151.908,220.032 152.280,224.717 153.321 M381.976 162.203 C 386.175 164.866,391.046 170.453,393.600 175.537 C 396.304 180.921,395.820 180.624,390.200 173.456 C 387.835 170.440,384.530 166.547,382.855 164.805 C 379.053 160.852,378.837 160.213,381.976 162.203 M205.498 213.058 C 219.806 218.411,212.594 249.824,196.880 250.592 C 185.421 251.153,189.628 232.061,202.300 226.000 C 207.140 223.685,207.766 222.418,205.539 219.444 C 203.900 217.255,200.508 216.361,197.261 217.262 C 194.646 217.988,193.353 216.877,194.418 214.818 C 195.680 212.379,201.297 211.486,205.498 213.058 M32.216 216.223 C 39.133 218.811,42.426 227.438,39.194 234.499 C 32.126 249.936,11.635 256.616,5.880 245.359 C 0.653 235.136,10.003 217.565,21.579 215.860 C 25.513 215.280,30.115 215.437,32.216 216.223 M23.305 220.326 C 10.948 224.280,4.275 243.233,14.098 246.475 C 18.261 247.849,26.206 243.686,31.699 237.251 C 38.928 228.783,33.169 217.169,23.305 220.326 M127.385 225.513 C 129.734 227.266,130.733 231.321,129.195 232.859 C 128.118 233.936,127.483 233.775,125.912 232.028 C 123.407 229.239,121.441 230.395,118.592 236.331 C 114.484 244.893,117.722 248.436,126.234 244.695 C 132.021 242.152,131.005 246.651,125.168 249.412 C 120.039 251.838,115.192 251.236,112.799 247.875 C 107.458 240.374,120.503 220.374,127.385 225.513 M151.759 225.153 C 157.648 228.156,154.250 236.372,145.323 240.714 C 142.030 242.316,141.413 242.971,141.864 244.390 C 142.649 246.864,146.730 246.483,151.249 243.513 C 155.604 240.651,157.042 242.830,153.280 246.592 C 148.021 251.851,139.575 252.037,136.600 246.959 C 131.403 238.092,143.372 220.876,151.759 225.153 M166.533 225.326 C 167.028 225.777,167.633 226.960,167.954 228.111 C 168.711 230.818,169.518 230.823,172.846 228.140 C 177.749 224.188,181.594 223.787,184.254 226.948 C 189.916 233.677,180.266 248.868,169.634 249.965 C 165.280 250.414,165.019 250.781,164.166 257.663 C 163.431 263.582,162.233 265.700,159.945 265.126 C 157.855 264.601,157.708 262.430,159.294 255.460 C 160.599 249.729,161.491 242.857,162.009 234.563 C 162.510 226.547,162.754 225.567,164.424 224.895 C 165.524 224.452,165.583 224.464,166.533 225.326 M259.224 225.408 C 263.793 227.318,264.348 228.914,263.162 236.728 C 262.634 240.200,262.970 243.546,264.091 245.997 C 266.225 250.662,261.473 252.053,259.148 247.444 C 257.713 244.599,256.904 244.408,254.482 246.338 C 249.662 250.180,246.064 250.771,243.392 248.159 C 237.383 242.283,251.401 222.140,259.224 225.408 M52.685 226.714 C 53.171 227.368,53.432 228.351,53.519 229.847 C 53.793 234.564,54.247 234.666,57.752 230.803 C 63.377 224.604,67.244 225.524,68.278 233.307 C 69.044 239.077,70.048 239.032,73.434 233.072 C 79.015 223.249,84.389 224.657,85.822 236.320 C 86.298 240.196,86.534 241.070,87.765 243.521 C 89.623 247.222,89.077 248.912,86.023 248.912 C 83.310 248.912,81.710 245.968,80.946 239.572 C 80.048 232.054,78.521 232.259,74.332 240.458 C 69.236 250.433,64.410 250.701,63.840 241.039 C 63.273 231.410,60.281 232.616,54.124 244.955 C 51.449 250.316,49.789 251.342,47.902 248.797 C 46.526 246.941,47.677 228.033,49.273 226.270 C 50.171 225.277,51.771 225.486,52.685 226.714 M221.885 227.005 C 223.119 227.975,223.089 229.443,221.740 234.200 C 220.257 239.429,220.052 242.174,221.048 243.429 C 223.381 246.366,228.810 241.134,232.401 232.489 C 235.864 224.154,238.902 227.262,237.081 237.278 C 235.979 243.343,236.156 245.129,238.003 246.582 C 239.624 247.857,239.861 248.267,239.861 249.794 C 239.861 253.867,236.221 259.073,234.419 257.578 C 233.991 257.222,233.931 256.679,234.115 254.846 C 234.337 252.637,234.306 252.509,233.227 251.170 C 232.612 250.407,231.740 248.960,231.290 247.955 C 230.265 245.670,229.791 245.637,226.854 247.648 C 217.921 253.764,213.651 247.925,216.705 233.768 C 218.218 226.756,219.477 225.111,221.885 227.005 M146.710 229.754 C 144.829 230.514,142.098 234.530,142.589 235.811 C 143.429 237.999,148.774 234.908,149.530 231.797 C 149.922 230.187,148.386 229.075,146.710 229.754 M203.307 230.719 C 198.370 233.110,194.078 242.479,196.902 244.700 C 199.232 246.533,203.653 242.844,206.301 236.857 C 208.654 231.537,207.310 228.781,203.307 230.719 M254.966 230.615 C 252.020 231.889,247.240 239.982,247.776 242.788 C 248.573 246.953,255.537 241.806,258.048 235.196 C 259.358 231.750,257.776 229.399,254.966 230.615 M175.044 231.650 C 172.019 233.960,167.798 240.368,167.798 242.650 C 167.798 248.335,175.734 244.588,179.302 237.217 C 181.871 231.910,179.229 228.455,175.044 231.650 M218.643 262.027 C 231.493 267.783,225.523 295.607,210.859 298.304 C 198.854 300.512,202.304 280.570,214.979 274.486 C 218.824 272.641,219.486 271.995,219.219 270.350 C 218.709 267.205,215.793 265.386,211.889 265.776 C 207.348 266.230,206.566 265.852,207.594 263.696 C 208.834 261.095,214.613 260.222,218.643 262.027 M142.439 273.906 C 145.514 275.671,145.669 282.274,142.618 281.508 C 142.156 281.392,141.358 280.747,140.845 280.074 C 138.638 277.181,135.511 279.664,133.038 286.275 C 130.459 293.169,133.844 295.688,141.476 292.553 C 146.643 290.432,145.526 294.505,140.234 297.085 C 127.821 303.137,122.488 290.681,132.243 278.417 C 136.132 273.528,139.321 272.117,142.439 273.906 M165.925 273.498 C 171.711 276.244,168.618 284.258,160.129 288.518 C 156.174 290.502,155.462 291.561,157.120 292.987 C 158.909 294.526,162.167 293.832,166.210 291.050 C 170.374 288.186,170.693 291.936,166.566 295.228 C 160.670 299.930,153.388 299.276,150.978 293.827 C 147.013 284.864,158.100 269.785,165.925 273.498 M180.660 273.959 C 181.033 274.332,181.519 275.311,181.739 276.135 C 182.529 279.089,183.232 279.179,186.292 276.716 C 191.385 272.615,195.926 272.252,198.068 275.773 C 202.376 282.857,193.144 296.754,183.527 297.662 C 179.227 298.068,179.032 298.338,178.051 305.274 C 177.233 311.049,176.622 312.272,174.552 312.272 C 172.141 312.272,171.793 310.117,173.188 303.817 C 174.713 296.929,175.660 289.687,176.141 281.232 C 176.448 275.825,176.894 273.948,177.974 273.514 C 178.925 273.131,180.013 273.312,180.660 273.959 M89.161 274.366 C 89.790 274.995,89.867 275.364,89.684 276.890 C 89.049 282.211,89.032 282.676,89.464 283.197 C 90.617 284.586,92.633 283.455,95.487 279.819 C 99.258 275.014,101.287 273.591,103.283 274.350 C 105.608 275.233,105.349 276.632,102.429 278.962 C 98.683 281.951,96.432 284.595,96.432 286.007 C 96.432 287.529,99.989 292.008,102.719 293.924 C 105.650 295.979,105.751 297.229,103.052 298.038 C 100.960 298.664,99.014 297.783,96.707 295.165 C 91.284 289.010,90.659 288.597,88.986 290.053 C 88.221 290.718,87.976 291.369,87.605 293.726 C 87.111 296.863,86.420 297.998,85.004 297.998 C 82.706 297.998,82.437 296.460,83.526 289.550 C 83.895 287.208,84.378 283.519,84.601 281.353 C 85.307 274.467,86.869 272.074,89.161 274.366 M275.013 275.013 C 276.090 276.090,276.192 277.173,275.741 282.809 C 274.551 297.699,272.911 303.734,269.128 307.135 C 264.534 311.266,255.540 309.786,252.700 304.431 C 251.704 302.555,251.586 302.543,249.410 304.091 C 246.621 306.073,245.677 305.536,245.994 302.147 C 246.141 300.568,246.039 300.071,245.365 299.092 C 244.923 298.449,244.091 297.040,243.516 295.962 C 242.210 293.511,241.915 293.462,239.149 295.251 C 230.164 301.064,226.090 295.842,229.049 282.307 C 230.523 275.562,230.798 275.022,232.758 275.022 C 235.184 275.022,235.557 277.253,233.988 282.377 C 229.680 296.454,238.241 294.969,244.395 280.572 C 245.814 277.251,246.469 276.444,247.761 276.425 C 249.693 276.397,250.027 278.873,248.912 284.943 C 247.767 291.174,247.890 292.458,249.830 294.532 C 251.418 296.230,251.448 296.304,251.658 299.130 L 251.871 302.002 253.438 302.185 C 254.384 302.295,255.831 302.876,257.093 303.652 C 262.894 307.220,267.532 304.698,269.105 297.120 C 269.896 293.312,268.731 292.693,264.527 294.687 C 255.663 298.892,252.220 292.968,256.238 280.424 C 257.642 276.041,259.381 274.468,261.283 275.858 C 262.279 276.586,262.115 278.557,260.775 281.984 C 258.032 289.001,259.465 292.704,264.145 290.691 C 268.143 288.971,270.282 285.676,270.857 280.351 C 271.461 274.768,272.908 272.908,275.013 275.013 M161.010 278.212 C 158.213 279.755,156.445 283.233,157.860 284.407 C 159.286 285.591,163.969 281.942,163.969 279.647 C 163.969 278.224,162.382 277.455,161.010 278.212 M216.362 278.977 C 209.558 282.166,205.941 294.533,212.272 292.962 C 213.605 292.632,216.545 289.497,218.023 286.830 C 221.503 280.550,220.737 276.927,216.362 278.977 M190.702 278.870 C 187.517 279.752,181.723 287.241,181.723 290.475 C 181.723 293.165,184.551 294.027,187.165 292.133 C 193.616 287.460,196.322 277.313,190.702 278.870 " stroke="none" fill="#e1e947" fill-rule="evenodd"></path><path id="path1" d="M204.700 152.492 C 177.484 154.998,156.710 168.584,150.947 187.647 C 149.168 193.531,148.083 203.795,149.146 204.678 C 150.944 206.169,152.821 203.258,156.468 193.322 C 163.158 175.097,180.745 162.538,200.814 161.655 C 216.855 160.948,232.584 165.134,254.164 175.851 C 266.223 181.840,266.079 181.434,258.699 188.659 C 252.443 194.784,250.118 198.085,252.059 198.085 C 253.192 198.085,255.230 196.904,262.945 191.771 C 268.195 188.279,270.735 186.801,272.170 186.403 C 273.789 185.954,274.470 185.510,275.892 183.975 C 277.944 181.760,282.879 178.667,290.862 174.593 C 328.942 155.158,357.924 160.310,374.507 189.463 C 380.572 200.124,380.109 216.284,373.353 229.813 C 365.851 244.836,353.596 257.647,324.108 281.288 C 293.336 305.960,279.051 321.503,276.688 332.887 C 276.075 335.841,276.554 335.745,279.659 332.289 C 285.231 326.086,293.421 318.246,299.913 312.901 C 303.551 309.905,308.071 305.876,309.957 303.946 C 312.580 301.264,314.314 299.863,317.327 297.993 C 319.495 296.649,322.494 294.662,323.993 293.580 C 325.492 292.497,327.972 290.919,329.504 290.072 C 331.036 289.226,333.151 287.870,334.204 287.059 C 335.257 286.248,337.137 284.900,338.381 284.063 C 349.811 276.378,369.076 260.530,376.504 252.702 C 386.227 242.455,390.284 235.079,392.952 222.802 C 400.187 189.506,383.773 163.233,350.442 154.759 C 340.352 152.194,326.014 151.431,319.408 153.107 C 313.544 154.596,307.232 156.728,303.220 158.576 C 301.018 159.591,298.138 160.913,296.820 161.516 C 292.585 163.451,280.838 170.250,278.503 172.117 C 271.204 177.954,270.871 178.007,266.289 174.062 C 256.126 165.316,238.000 156.273,224.717 153.321 C 220.032 152.280,211.045 151.908,204.700 152.492 M379.809 161.411 C 379.809 161.535,381.179 163.063,382.855 164.805 C 384.530 166.547,387.835 170.440,390.200 173.456 C 394.522 178.969,395.126 179.643,395.126 178.952 C 395.126 178.166,392.005 172.407,390.480 170.379 C 387.326 166.185,379.809 159.867,379.809 161.411 M196.264 213.075 C 192.769 214.921,193.571 218.287,197.261 217.262 C 200.508 216.361,203.900 217.255,205.539 219.444 C 207.766 222.418,207.140 223.685,202.300 226.000 C 189.628 232.061,185.421 251.153,196.880 250.592 C 212.594 249.824,219.806 218.411,205.498 213.058 C 202.915 212.091,198.110 212.101,196.264 213.075 M21.579 215.860 C 6.274 218.115,-2.024 244.758,10.854 250.298 C 22.209 255.183,42.843 238.757,40.432 226.752 C 38.670 217.979,32.274 214.283,21.579 215.860 M29.825 220.395 C 35.732 223.254,36.644 231.459,31.699 237.251 C 21.450 249.256,8.774 249.804,9.472 238.213 C 10.121 227.445,22.322 216.763,29.825 220.395 M122.800 225.024 C 118.435 226.636,112.881 234.585,111.760 240.824 C 110.264 249.153,116.828 253.357,125.168 249.412 C 131.005 246.651,132.021 242.152,126.234 244.695 C 117.722 248.436,114.484 244.893,118.592 236.331 C 121.441 230.395,123.407 229.239,125.912 232.028 C 128.245 234.624,130.045 233.713,129.781 230.069 C 129.491 226.054,126.285 223.737,122.800 225.024 M145.319 225.543 C 135.895 230.002,131.964 244.883,138.984 249.529 C 143.953 252.817,156.153 247.727,155.206 242.760 C 154.992 241.639,153.737 241.878,151.249 243.513 C 146.730 246.483,142.649 246.864,141.864 244.390 C 141.413 242.971,142.030 242.316,145.323 240.714 C 151.424 237.747,154.830 233.609,154.495 229.573 C 154.120 225.044,150.103 223.280,145.319 225.543 M164.424 224.895 C 162.754 225.567,162.510 226.547,162.009 234.563 C 161.491 242.857,160.599 249.729,159.294 255.460 C 157.708 262.430,157.855 264.601,159.945 265.126 C 162.233 265.700,163.431 263.582,164.166 257.663 C 165.019 250.781,165.280 250.414,169.634 249.965 C 180.266 248.868,189.916 233.677,184.254 226.948 C 181.594 223.787,177.749 224.188,172.846 228.140 C 169.518 230.823,168.711 230.818,167.954 228.111 C 167.633 226.960,167.028 225.777,166.533 225.326 C 165.583 224.464,165.524 224.452,164.424 224.895 M255.206 225.463 C 246.650 228.458,238.755 243.625,243.392 248.159 C 246.064 250.771,249.662 250.180,254.482 246.338 C 256.904 244.408,257.713 244.599,259.148 247.444 C 261.473 252.053,266.225 250.662,264.091 245.997 C 262.970 243.546,262.634 240.200,263.162 236.728 C 264.218 229.776,264.078 228.790,261.779 226.969 C 259.198 224.925,257.714 224.585,255.206 225.463 M49.273 226.270 C 47.677 228.033,46.526 246.941,47.902 248.797 C 49.789 251.342,51.449 250.316,54.124 244.955 C 60.281 232.616,63.273 231.410,63.840 241.039 C 64.410 250.701,69.236 250.433,74.332 240.458 C 78.521 232.259,80.048 232.054,80.946 239.572 C 81.710 245.968,83.310 248.912,86.023 248.912 C 89.077 248.912,89.623 247.222,87.765 243.521 C 86.534 241.070,86.298 240.196,85.822 236.320 C 84.389 224.657,79.015 223.249,73.434 233.072 C 70.048 239.032,69.044 239.077,68.278 233.307 C 67.244 225.524,63.377 224.604,57.752 230.803 C 54.247 234.666,53.793 234.564,53.519 229.847 C 53.313 226.300,51.005 224.356,49.273 226.270 M218.967 227.241 C 216.766 229.227,214.655 242.755,216.032 246.051 C 217.844 250.387,221.965 250.995,226.854 247.648 C 229.791 245.637,230.265 245.670,231.290 247.955 C 231.740 248.960,232.612 250.407,233.227 251.170 C 234.306 252.509,234.337 252.637,234.115 254.846 C 233.931 256.679,233.991 257.222,234.419 257.578 C 236.221 259.073,239.861 253.867,239.861 249.794 C 239.861 248.267,239.624 247.857,238.003 246.582 C 236.156 245.129,235.979 243.343,237.081 237.278 C 238.902 227.262,235.864 224.154,232.401 232.489 C 228.810 241.134,223.381 246.366,221.048 243.429 C 220.052 242.174,220.257 239.429,221.740 234.200 C 223.089 229.443,223.119 227.975,221.885 227.005 C 220.681 226.058,220.239 226.094,218.967 227.241 M149.029 230.143 C 150.386 231.500,148.740 234.447,145.770 235.975 C 142.088 237.870,141.439 234.594,144.826 231.207 C 146.707 229.325,147.907 229.021,149.029 230.143 M207.142 230.642 C 208.790 232.627,204.708 241.569,200.989 244.121 C 194.751 248.402,194.206 239.440,200.321 233.132 C 202.983 230.387,206.012 229.281,207.142 230.642 M257.867 230.887 C 259.255 231.997,258.470 235.342,255.952 239.051 C 250.217 247.496,244.597 245.113,249.859 236.466 C 253.126 231.099,255.801 229.235,257.867 230.887 M179.844 231.337 C 182.859 235.938,172.433 248.357,168.695 244.619 C 167.016 242.940,167.838 240.281,171.549 235.393 C 175.062 230.764,178.400 229.132,179.844 231.337 M209.664 261.761 C 207.806 262.631,206.671 264.609,207.534 265.472 C 208.149 266.088,208.516 266.113,211.889 265.776 C 215.793 265.386,218.709 267.205,219.219 270.350 C 219.486 271.995,218.824 272.641,214.979 274.486 C 202.304 280.570,198.854 300.512,210.859 298.304 C 225.523 295.607,231.493 267.783,218.643 262.027 C 216.300 260.978,211.632 260.840,209.664 261.761 M138.335 273.438 C 132.804 275.136,126.646 285.373,127.165 292.004 C 127.639 298.043,133.552 300.343,140.234 297.085 C 145.526 294.505,146.643 290.432,141.476 292.553 C 133.844 295.688,130.459 293.169,133.038 286.275 C 135.511 279.664,138.638 277.181,140.845 280.074 C 142.741 282.559,144.822 281.870,144.822 278.758 C 144.822 274.843,141.808 272.372,138.335 273.438 M160.730 273.436 C 151.810 276.618,146.872 291.177,152.915 296.482 C 156.266 299.424,161.961 298.901,166.566 295.228 C 170.693 291.936,170.374 288.186,166.210 291.050 C 162.167 293.832,158.909 294.526,157.120 292.987 C 155.462 291.561,156.174 290.502,160.129 288.518 C 165.738 285.704,169.121 281.524,168.768 277.845 C 168.391 273.926,164.831 271.973,160.730 273.436 M177.974 273.514 C 176.894 273.948,176.448 275.825,176.141 281.232 C 175.660 289.687,174.713 296.929,173.188 303.817 C 171.793 310.117,172.141 312.272,174.552 312.272 C 176.622 312.272,177.233 311.049,178.051 305.274 C 179.032 298.338,179.227 298.068,183.527 297.662 C 187.253 297.310,189.556 296.086,193.040 292.603 C 204.497 281.153,198.453 266.924,186.292 276.716 C 183.232 279.179,182.529 279.089,181.739 276.135 C 181.112 273.789,179.712 272.815,177.974 273.514 M86.388 274.444 C 85.376 275.522,85.083 276.655,84.601 281.353 C 84.378 283.519,83.895 287.208,83.526 289.550 C 82.437 296.460,82.706 297.998,85.004 297.998 C 86.420 297.998,87.111 296.863,87.605 293.726 C 87.976 291.369,88.221 290.718,88.986 290.053 C 90.659 288.597,91.284 289.010,96.707 295.165 C 99.014 297.783,100.960 298.664,103.052 298.038 C 105.751 297.229,105.650 295.979,102.719 293.924 C 99.989 292.008,96.432 287.529,96.432 286.007 C 96.432 284.595,98.683 281.951,102.429 278.962 C 105.349 276.632,105.608 275.233,103.283 274.350 C 101.287 273.591,99.258 275.014,95.487 279.819 C 92.633 283.455,90.617 284.586,89.464 283.197 C 89.032 282.676,89.049 282.211,89.684 276.890 C 90.023 274.055,88.097 272.625,86.388 274.444 M272.330 275.010 C 271.397 275.879,271.304 276.214,270.857 280.351 C 270.282 285.676,268.143 288.971,264.145 290.691 C 259.465 292.704,258.032 289.001,260.775 281.984 C 262.115 278.557,262.279 276.586,261.283 275.858 C 259.381 274.468,257.642 276.041,256.238 280.424 C 252.220 292.968,255.663 298.892,264.527 294.687 C 268.731 292.693,269.896 293.312,269.105 297.120 C 267.532 304.698,262.894 307.220,257.093 303.652 C 255.831 302.876,254.384 302.295,253.438 302.185 L 251.871 302.002 251.658 299.130 C 251.448 296.304,251.418 296.230,249.830 294.532 C 247.890 292.458,247.767 291.174,248.912 284.943 C 250.027 278.873,249.693 276.397,247.761 276.425 C 246.469 276.444,245.814 277.251,244.395 280.572 C 238.241 294.969,229.680 296.454,233.988 282.377 C 235.557 277.253,235.184 275.022,232.758 275.022 C 230.798 275.022,230.523 275.562,229.049 282.307 C 226.090 295.842,230.164 301.064,239.149 295.251 C 241.915 293.462,242.210 293.511,243.516 295.962 C 244.091 297.040,244.923 298.449,245.365 299.092 C 246.039 300.071,246.141 300.568,245.994 302.147 C 245.677 305.536,246.621 306.073,249.410 304.091 C 251.586 302.543,251.704 302.555,252.700 304.431 C 255.540 309.786,264.534 311.266,269.128 307.135 C 272.911 303.734,274.551 297.699,275.741 282.809 C 276.337 275.354,275.069 272.457,272.330 275.010 M163.332 278.383 C 164.975 279.869,162.464 283.609,159.165 284.589 C 156.697 285.323,156.807 281.827,159.325 279.507 C 161.248 277.735,162.293 277.442,163.332 278.383 M219.511 279.009 C 221.769 281.267,216.207 291.986,212.272 292.962 C 205.941 294.533,209.558 282.166,216.362 278.977 C 218.513 277.969,218.471 277.969,219.511 279.009 M193.487 279.932 C 195.354 283.396,188.694 293.124,184.456 293.124 C 180.411 293.124,180.964 288.706,185.733 282.924 C 189.235 278.678,192.196 277.536,193.487 279.932 " stroke="none" fill="#c32e33" fill-rule="evenodd"></path></g></svg>